<svg xmlns="http://www.w3.org/2000/svg" xmlns:xlink="http://www.w3.org/1999/xlink" width="1600" zoomAndPan="magnify" viewBox="0 0 1200 675.000002" height="900" preserveAspectRatio="xMidYMid meet" version="1.0"><defs><g/><clipPath id="1cde6f58fb"><path d="M 0.886719 0 L 1199.113281 0 L 1199.113281 674 L 0.886719 674 Z M 0.886719 0 " clip-rule="nonzero"/></clipPath></defs><g clip-path="url(#1cde6f58fb)"><path fill="#ffffff" d="M 0.886719 0 L 1199.113281 0 L 1199.113281 674 L 0.886719 674 Z M 0.886719 0 " fill-opacity="1" fill-rule="nonzero"/><path fill="#8e85e6" d="M 0.886719 0 L 1199.113281 0 L 1199.113281 674 L 0.886719 674 Z M 0.886719 0 " fill-opacity="1" fill-rule="nonzero"/></g><g fill="#f8f8f8" fill-opacity="1"><g transform="translate(265.007767, 290.156943)"><g><path d="M 43.96875 -89.984375 C 49.320312 -89.984375 53.992188 -89.21875 57.984375 -87.6875 C 61.984375 -86.15625 65.894531 -83.816406 69.71875 -80.671875 L 61.171875 -70.734375 C 55.992188 -74.898438 50.554688 -76.984375 44.859375 -76.984375 C 38.316406 -76.984375 33.070312 -74.347656 29.125 -69.078125 C 25.175781 -63.804688 23.203125 -55.519531 23.203125 -44.21875 C 23.203125 -33.175781 25.15625 -24.976562 29.0625 -19.625 C 32.96875 -14.269531 38.234375 -11.59375 44.859375 -11.59375 C 48.347656 -11.59375 51.453125 -12.207031 54.171875 -13.4375 C 56.890625 -14.675781 59.773438 -16.441406 62.828125 -18.734375 L 70.734375 -8.796875 C 67.765625 -5.734375 64.003906 -3.179688 59.453125 -1.140625 C 54.910156 0.890625 49.832031 1.90625 44.21875 1.90625 C 36.570312 1.90625 29.816406 0.125 23.953125 -3.4375 C 18.097656 -7.007812 13.554688 -12.253906 10.328125 -19.171875 C 7.097656 -26.097656 5.484375 -34.445312 5.484375 -44.21875 C 5.484375 -53.820312 7.160156 -62.066406 10.515625 -68.953125 C 13.867188 -75.835938 18.457031 -81.0625 24.28125 -84.625 C 30.101562 -88.195312 36.664062 -89.984375 43.96875 -89.984375 Z M 43.96875 -89.984375 "/></g></g></g><g fill="#f8f8f8" fill-opacity="1"><g transform="translate(337.393788, 290.156943)"><g><path d="M 58.5 0 L 58.5 -39.390625 L 27.140625 -39.390625 L 27.140625 0 L 10.328125 0 L 10.328125 -88.0625 L 27.140625 -88.0625 L 27.140625 -52.765625 L 58.5 -52.765625 L 58.5 -88.0625 L 75.453125 -88.0625 L 75.453125 0 Z M 58.5 0 "/></g></g></g><g fill="#f8f8f8" fill-opacity="1"><g transform="translate(423.033593, 290.156943)"><g><path d="M 61.4375 -88.0625 L 59.640625 -75.578125 L 27.140625 -75.578125 L 27.140625 -50.984375 L 55.4375 -50.984375 L 55.4375 -38.484375 L 27.140625 -38.484375 L 27.140625 -12.625 L 61.9375 -12.625 L 61.9375 0 L 10.328125 0 L 10.328125 -88.0625 Z M 61.4375 -88.0625 "/></g></g></g><g fill="#f8f8f8" fill-opacity="1"><g transform="translate(490.576887, 290.156943)"><g><path d="M 43.96875 -89.984375 C 49.320312 -89.984375 53.992188 -89.21875 57.984375 -87.6875 C 61.984375 -86.15625 65.894531 -83.816406 69.71875 -80.671875 L 61.171875 -70.734375 C 55.992188 -74.898438 50.554688 -76.984375 44.859375 -76.984375 C 38.316406 -76.984375 33.070312 -74.347656 29.125 -69.078125 C 25.175781 -63.804688 23.203125 -55.519531 23.203125 -44.21875 C 23.203125 -33.175781 25.15625 -24.976562 29.0625 -19.625 C 32.96875 -14.269531 38.234375 -11.59375 44.859375 -11.59375 C 48.347656 -11.59375 51.453125 -12.207031 54.171875 -13.4375 C 56.890625 -14.675781 59.773438 -16.441406 62.828125 -18.734375 L 70.734375 -8.796875 C 67.765625 -5.734375 64.003906 -3.179688 59.453125 -1.140625 C 54.910156 0.890625 49.832031 1.90625 44.21875 1.90625 C 36.570312 1.90625 29.816406 0.125 23.953125 -3.4375 C 18.097656 -7.007812 13.554688 -12.253906 10.328125 -19.171875 C 7.097656 -26.097656 5.484375 -34.445312 5.484375 -44.21875 C 5.484375 -53.820312 7.160156 -62.066406 10.515625 -68.953125 C 13.867188 -75.835938 18.457031 -81.0625 24.28125 -84.625 C 30.101562 -88.195312 36.664062 -89.984375 43.96875 -89.984375 Z M 43.96875 -89.984375 "/></g></g></g><g fill="#f8f8f8" fill-opacity="1"><g transform="translate(562.962908, 290.156943)"><g><path d="M 27.140625 -88.0625 L 27.140625 0 L 10.328125 0 L 10.328125 -88.0625 Z M 76.59375 -88.0625 L 46.140625 -48.171875 L 79.015625 0 L 59.015625 0 L 27.90625 -47.03125 L 58.375 -88.0625 Z M 76.59375 -88.0625 "/></g></g></g><g fill="#f8f8f8" fill-opacity="1"><g transform="translate(641.08372, 290.156943)"><g/></g></g><g fill="#f8f8f8" fill-opacity="1"><g transform="translate(672.943746, 290.156943)"><g><path d="M 66.90625 -88.0625 L 65.125 -74.6875 L 42.1875 -74.6875 L 42.1875 0 L 25.234375 0 L 25.234375 -74.6875 L 1.53125 -74.6875 L 1.53125 -88.0625 Z M 66.90625 -88.0625 "/></g></g></g><g fill="#f8f8f8" fill-opacity="1"><g transform="translate(740.48705, 290.156943)"><g><path d="M 58.5 0 L 58.5 -39.390625 L 27.140625 -39.390625 L 27.140625 0 L 10.328125 0 L 10.328125 -88.0625 L 27.140625 -88.0625 L 27.140625 -52.765625 L 58.5 -52.765625 L 58.5 -88.0625 L 75.453125 -88.0625 L 75.453125 0 Z M 58.5 0 "/></g></g></g><g fill="#f8f8f8" fill-opacity="1"><g transform="translate(826.126866, 290.156943)"><g><path d="M 27.140625 -88.0625 L 27.140625 0 L 10.328125 0 L 10.328125 -88.0625 Z M 27.140625 -88.0625 "/></g></g></g><g fill="#f8f8f8" fill-opacity="1"><g transform="translate(863.594292, 290.156943)"><g><path d="M 35.6875 -89.984375 C 41.882812 -89.984375 47.273438 -89.085938 51.859375 -87.296875 C 56.453125 -85.515625 60.75 -82.796875 64.75 -79.140625 L 56.46875 -69.59375 C 53.320312 -72.226562 50.15625 -74.140625 46.96875 -75.328125 C 43.78125 -76.515625 40.359375 -77.109375 36.703125 -77.109375 C 32.628906 -77.109375 29.335938 -76.191406 26.828125 -74.359375 C 24.316406 -72.535156 23.0625 -69.96875 23.0625 -66.65625 C 23.0625 -64.445312 23.550781 -62.617188 24.53125 -61.171875 C 25.507812 -59.734375 27.269531 -58.375 29.8125 -57.09375 C 32.363281 -55.820312 36.148438 -54.421875 41.171875 -52.890625 C 49.835938 -50.171875 56.359375 -46.789062 60.734375 -42.75 C 65.109375 -38.71875 67.296875 -32.835938 67.296875 -25.109375 C 67.296875 -19.835938 65.957031 -15.160156 63.28125 -11.078125 C 60.601562 -7.003906 56.753906 -3.820312 51.734375 -1.53125 C 46.722656 0.757812 40.78125 1.90625 33.90625 1.90625 C 27.1875 1.90625 21.171875 0.820312 15.859375 -1.34375 C 10.554688 -3.507812 5.992188 -6.460938 2.171875 -10.203125 L 10.828125 -19.875 C 14.234375 -16.988281 17.757812 -14.800781 21.40625 -13.3125 C 25.0625 -11.832031 29.097656 -11.09375 33.515625 -11.09375 C 38.359375 -11.09375 42.265625 -12.238281 45.234375 -14.53125 C 48.210938 -16.820312 49.703125 -20.050781 49.703125 -24.21875 C 49.703125 -26.769531 49.191406 -28.875 48.171875 -30.53125 C 47.148438 -32.1875 45.40625 -33.671875 42.9375 -34.984375 C 40.476562 -36.304688 36.914062 -37.6875 32.25 -39.125 C 22.894531 -42.019531 16.132812 -45.503906 11.96875 -49.578125 C 7.8125 -53.660156 5.734375 -59.015625 5.734375 -65.640625 C 5.734375 -70.484375 7.003906 -74.726562 9.546875 -78.375 C 12.097656 -82.03125 15.644531 -84.878906 20.1875 -86.921875 C 24.738281 -88.960938 29.90625 -89.984375 35.6875 -89.984375 Z M 35.6875 -89.984375 "/></g></g></g><g fill="#f8f8f8" fill-opacity="1"><g transform="translate(448.848688, 442.930606)"><g><path d="M 36.328125 -88.0625 C 47.628906 -88.0625 56.398438 -85.722656 62.640625 -81.046875 C 68.890625 -76.378906 72.015625 -69.375 72.015625 -60.03125 C 72.015625 -50.257812 68.867188 -42.929688 62.578125 -38.046875 C 56.285156 -33.160156 47.914062 -30.71875 37.46875 -30.71875 L 27.140625 -30.71875 L 27.140625 0 L 10.328125 0 L 10.328125 -88.0625 Z M 36.203125 -43.328125 C 42.234375 -43.328125 46.773438 -44.582031 49.828125 -47.09375 C 52.890625 -49.601562 54.421875 -53.914062 54.421875 -60.03125 C 54.421875 -70.476562 48.347656 -75.703125 36.203125 -75.703125 L 27.140625 -75.703125 L 27.140625 -43.328125 Z M 36.203125 -43.328125 "/></g></g></g><g fill="#f8f8f8" fill-opacity="1"><g transform="translate(524.165834, 442.930606)"><g><path d="M 44.09375 -89.984375 C 52 -89.984375 58.835938 -88.195312 64.609375 -84.625 C 70.390625 -81.0625 74.832031 -75.835938 77.9375 -68.953125 C 81.039062 -62.066406 82.59375 -53.78125 82.59375 -44.09375 C 82.59375 -34.5 81.019531 -26.257812 77.875 -19.375 C 74.726562 -12.488281 70.265625 -7.21875 64.484375 -3.5625 C 58.710938 0.0820312 51.914062 1.90625 44.09375 1.90625 C 36.195312 1.90625 29.359375 0.125 23.578125 -3.4375 C 17.796875 -7.007812 13.332031 -12.234375 10.1875 -19.109375 C 7.050781 -25.992188 5.484375 -34.28125 5.484375 -43.96875 C 5.484375 -53.488281 7.050781 -61.707031 10.1875 -68.625 C 13.332031 -75.550781 17.816406 -80.84375 23.640625 -84.5 C 29.460938 -88.15625 36.28125 -89.984375 44.09375 -89.984375 Z M 44.09375 -77.109375 C 37.300781 -77.109375 32.117188 -74.453125 28.546875 -69.140625 C 24.984375 -63.828125 23.203125 -55.4375 23.203125 -43.96875 C 23.203125 -21.96875 30.164062 -10.96875 44.09375 -10.96875 C 50.894531 -10.96875 56.054688 -13.597656 59.578125 -18.859375 C 63.109375 -24.128906 64.875 -32.539062 64.875 -44.09375 C 64.875 -55.570312 63.109375 -63.941406 59.578125 -69.203125 C 56.054688 -74.472656 50.894531 -77.109375 44.09375 -77.109375 Z M 44.09375 -77.109375 "/></g></g></g><g fill="#f8f8f8" fill-opacity="1"><g transform="translate(612.226997, 442.930606)"><g><path d="M 35.6875 -89.984375 C 41.882812 -89.984375 47.273438 -89.085938 51.859375 -87.296875 C 56.453125 -85.515625 60.75 -82.796875 64.75 -79.140625 L 56.46875 -69.59375 C 53.320312 -72.226562 50.15625 -74.140625 46.96875 -75.328125 C 43.78125 -76.515625 40.359375 -77.109375 36.703125 -77.109375 C 32.628906 -77.109375 29.335938 -76.191406 26.828125 -74.359375 C 24.316406 -72.535156 23.0625 -69.96875 23.0625 -66.65625 C 23.0625 -64.445312 23.550781 -62.617188 24.53125 -61.171875 C 25.507812 -59.734375 27.269531 -58.375 29.8125 -57.09375 C 32.363281 -55.820312 36.148438 -54.421875 41.171875 -52.890625 C 49.835938 -50.171875 56.359375 -46.789062 60.734375 -42.75 C 65.109375 -38.71875 67.296875 -32.835938 67.296875 -25.109375 C 67.296875 -19.835938 65.957031 -15.160156 63.28125 -11.078125 C 60.601562 -7.003906 56.753906 -3.820312 51.734375 -1.53125 C 46.722656 0.757812 40.78125 1.90625 33.90625 1.90625 C 27.1875 1.90625 21.171875 0.820312 15.859375 -1.34375 C 10.554688 -3.507812 5.992188 -6.460938 2.171875 -10.203125 L 10.828125 -19.875 C 14.234375 -16.988281 17.757812 -14.800781 21.40625 -13.3125 C 25.0625 -11.832031 29.097656 -11.09375 33.515625 -11.09375 C 38.359375 -11.09375 42.265625 -12.238281 45.234375 -14.53125 C 48.210938 -16.820312 49.703125 -20.050781 49.703125 -24.21875 C 49.703125 -26.769531 49.191406 -28.875 48.171875 -30.53125 C 47.148438 -32.1875 45.40625 -33.671875 42.9375 -34.984375 C 40.476562 -36.304688 36.914062 -37.6875 32.25 -39.125 C 22.894531 -42.019531 16.132812 -45.503906 11.96875 -49.578125 C 7.8125 -53.660156 5.734375 -59.015625 5.734375 -65.640625 C 5.734375 -70.484375 7.003906 -74.726562 9.546875 -78.375 C 12.097656 -82.03125 15.644531 -84.878906 20.1875 -86.921875 C 24.738281 -88.960938 29.90625 -89.984375 35.6875 -89.984375 Z M 35.6875 -89.984375 "/></g></g></g><g fill="#f8f8f8" fill-opacity="1"><g transform="translate(683.593499, 442.930606)"><g><path d="M 66.90625 -88.0625 L 65.125 -74.6875 L 42.1875 -74.6875 L 42.1875 0 L 25.234375 0 L 25.234375 -74.6875 L 1.53125 -74.6875 L 1.53125 -88.0625 Z M 66.90625 -88.0625 "/></g></g></g><text x="40%" y="87%" font-size="1.5em" font-family="Arial, sans-serif" fill="white">https://demo.iggy.social</text></svg>