<svg xmlns="http://www.w3.org/2000/svg" xmlns:xlink="http://www.w3.org/1999/xlink" width="1600" zoomAndPan="magnify" viewBox="0 0 1200 675.000002" height="900" preserveAspectRatio="xMidYMid meet" version="1.0"><defs><g/><clipPath id="e88078a800"><path d="M 0.886719 0 L 1199.113281 0 L 1199.113281 674 L 0.886719 674 Z M 0.886719 0 " clip-rule="nonzero"/></clipPath></defs><g clip-path="url(#e88078a800)"><path fill="#ffffff" d="M 0.886719 0 L 1199.113281 0 L 1199.113281 674 L 0.886719 674 Z M 0.886719 0 " fill-opacity="1" fill-rule="nonzero"/><path fill="#8e85e6" d="M 0.886719 0 L 1199.113281 0 L 1199.113281 674 L 0.886719 674 Z M 0.886719 0 " fill-opacity="1" fill-rule="nonzero"/></g><g fill="#f8f8f8" fill-opacity="1"><g transform="translate(299.550341, 290.157178)"><g><path d="M 43.96875 -89.984375 C 49.320312 -89.984375 53.992188 -89.21875 57.984375 -87.6875 C 61.984375 -86.15625 65.894531 -83.816406 69.71875 -80.671875 L 61.171875 -70.734375 C 55.992188 -74.898438 50.554688 -76.984375 44.859375 -76.984375 C 38.316406 -76.984375 33.070312 -74.347656 29.125 -69.078125 C 25.175781 -63.804688 23.203125 -55.519531 23.203125 -44.21875 C 23.203125 -33.175781 25.15625 -24.976562 29.0625 -19.625 C 32.96875 -14.269531 38.234375 -11.59375 44.859375 -11.59375 C 48.347656 -11.59375 51.453125 -12.207031 54.171875 -13.4375 C 56.890625 -14.675781 59.773438 -16.441406 62.828125 -18.734375 L 70.734375 -8.796875 C 67.765625 -5.734375 64.003906 -3.179688 59.453125 -1.140625 C 54.910156 0.890625 49.832031 1.90625 44.21875 1.90625 C 36.570312 1.90625 29.816406 0.125 23.953125 -3.4375 C 18.097656 -7.007812 13.554688 -12.253906 10.328125 -19.171875 C 7.097656 -26.097656 5.484375 -34.445312 5.484375 -44.21875 C 5.484375 -53.820312 7.160156 -62.066406 10.515625 -68.953125 C 13.867188 -75.835938 18.457031 -81.0625 24.28125 -84.625 C 30.101562 -88.195312 36.664062 -89.984375 43.96875 -89.984375 Z M 43.96875 -89.984375 "/></g></g></g><g fill="#f8f8f8" fill-opacity="1"><g transform="translate(371.936363, 290.157178)"><g><path d="M 27.140625 -88.0625 L 27.140625 -13.765625 L 62.453125 -13.765625 L 60.546875 0 L 10.328125 0 L 10.328125 -88.0625 Z M 27.140625 -88.0625 "/></g></g></g><g fill="#f8f8f8" fill-opacity="1"><g transform="translate(436.421096, 290.157178)"><g><path d="M 56.96875 0 L 51.484375 -20.390625 L 22.296875 -20.390625 L 16.828125 0 L -0.640625 0 L 26.765625 -88.0625 L 47.546875 -88.0625 L 74.8125 0 Z M 25.625 -33.140625 L 48.046875 -33.140625 L 36.828125 -75.203125 Z M 25.625 -33.140625 "/></g></g></g><g fill="#f8f8f8" fill-opacity="1"><g transform="translate(510.718722, 290.157178)"><g><path d="M 27.140625 -88.0625 L 27.140625 0 L 10.328125 0 L 10.328125 -88.0625 Z M 27.140625 -88.0625 "/></g></g></g><g fill="#f8f8f8" fill-opacity="1"><g transform="translate(548.186148, 290.157178)"><g><path d="M 93.8125 0 L 77.359375 0 L 75.0625 -36.828125 C 74.300781 -50.003906 73.921875 -60.457031 73.921875 -68.1875 L 73.921875 -72.78125 L 57.859375 -9.5625 L 41.9375 -9.5625 L 24.859375 -72.90625 C 25.023438 -67.289062 25.109375 -63.039062 25.109375 -60.15625 C 25.109375 -52.425781 24.851562 -44.484375 24.34375 -36.328125 L 22.171875 0 L 5.859375 0 L 12.875 -88.0625 L 34.546875 -88.0625 L 50.21875 -26.375 L 65 -88.0625 L 86.921875 -88.0625 Z M 93.8125 0 "/></g></g></g><g fill="#f8f8f8" fill-opacity="1"><g transform="translate(647.844349, 290.157178)"><g/></g></g><g fill="#f8f8f8" fill-opacity="1"><g transform="translate(679.704397, 290.157178)"><g><path d="M 66.90625 -88.0625 L 65.125 -74.6875 L 42.1875 -74.6875 L 42.1875 0 L 25.234375 0 L 25.234375 -74.6875 L 1.53125 -74.6875 L 1.53125 -88.0625 Z M 66.90625 -88.0625 "/></g></g></g><g fill="#f8f8f8" fill-opacity="1"><g transform="translate(747.24768, 290.157178)"><g><path d="M 58.5 0 L 58.5 -39.390625 L 27.140625 -39.390625 L 27.140625 0 L 10.328125 0 L 10.328125 -88.0625 L 27.140625 -88.0625 L 27.140625 -52.765625 L 58.5 -52.765625 L 58.5 -88.0625 L 75.453125 -88.0625 L 75.453125 0 Z M 58.5 0 "/></g></g></g><g fill="#f8f8f8" fill-opacity="1"><g transform="translate(832.887496, 290.157178)"><g><path d="M 61.4375 -88.0625 L 59.640625 -75.578125 L 27.140625 -75.578125 L 27.140625 -50.984375 L 55.4375 -50.984375 L 55.4375 -38.484375 L 27.140625 -38.484375 L 27.140625 -12.625 L 61.9375 -12.625 L 61.9375 0 L 10.328125 0 L 10.328125 -88.0625 Z M 61.4375 -88.0625 "/></g></g></g><g fill="#f8f8f8" fill-opacity="1"><g transform="translate(343.266824, 442.930841)"><g><path d="M 56.96875 0 L 51.484375 -20.390625 L 22.296875 -20.390625 L 16.828125 0 L -0.640625 0 L 26.765625 -88.0625 L 47.546875 -88.0625 L 74.8125 0 Z M 25.625 -33.140625 L 48.046875 -33.140625 L 36.828125 -75.203125 Z M 25.625 -33.140625 "/></g></g></g><g fill="#f8f8f8" fill-opacity="1"><g transform="translate(417.56445, 442.930841)"><g><path d="M 27.140625 -88.0625 L 27.140625 0 L 10.328125 0 L 10.328125 -88.0625 Z M 27.140625 -88.0625 "/></g></g></g><g fill="#f8f8f8" fill-opacity="1"><g transform="translate(455.031864, 442.930841)"><g><path d="M 37.859375 -35.296875 L 27.140625 -35.296875 L 27.140625 0 L 10.328125 0 L 10.328125 -88.0625 L 36.578125 -88.0625 C 59.859375 -88.0625 71.5 -79.441406 71.5 -62.203125 C 71.5 -56.335938 70.050781 -51.492188 67.15625 -47.671875 C 64.269531 -43.847656 59.769531 -40.742188 53.65625 -38.359375 L 76.734375 0 L 57.359375 0 Z M 27.140625 -47.40625 L 37.59375 -47.40625 C 42.945312 -47.40625 47.003906 -48.570312 49.765625 -50.90625 C 52.523438 -53.25 53.90625 -57.015625 53.90625 -62.203125 C 53.90625 -66.953125 52.484375 -70.410156 49.640625 -72.578125 C 46.796875 -74.742188 42.316406 -75.828125 36.203125 -75.828125 L 27.140625 -75.828125 Z M 27.140625 -47.40625 "/></g></g></g><g fill="#f8f8f8" fill-opacity="1"><g transform="translate(532.897815, 442.930841)"><g><path d="M 31.984375 -88.0625 C 45.671875 -88.0625 56.613281 -84.960938 64.8125 -78.765625 C 73.007812 -72.566406 77.109375 -61.140625 77.109375 -44.484375 C 77.109375 -28.171875 73.070312 -16.675781 65 -10 C 56.925781 -3.332031 46.6875 0 34.28125 0 L 10.328125 0 L 10.328125 -88.0625 Z M 27.140625 -75.453125 L 27.140625 -12.625 L 35.4375 -12.625 C 42.90625 -12.625 48.765625 -14.9375 53.015625 -19.5625 C 57.265625 -24.195312 59.390625 -32.503906 59.390625 -44.484375 C 59.390625 -52.804688 58.304688 -59.238281 56.140625 -63.78125 C 53.972656 -68.332031 51.125 -71.414062 47.59375 -73.03125 C 44.070312 -74.644531 39.847656 -75.453125 34.921875 -75.453125 Z M 27.140625 -75.453125 "/></g></g></g><g fill="#f8f8f8" fill-opacity="1"><g transform="translate(615.47906, 442.930841)"><g><path d="M 37.859375 -35.296875 L 27.140625 -35.296875 L 27.140625 0 L 10.328125 0 L 10.328125 -88.0625 L 36.578125 -88.0625 C 59.859375 -88.0625 71.5 -79.441406 71.5 -62.203125 C 71.5 -56.335938 70.050781 -51.492188 67.15625 -47.671875 C 64.269531 -43.847656 59.769531 -40.742188 53.65625 -38.359375 L 76.734375 0 L 57.359375 0 Z M 27.140625 -47.40625 L 37.59375 -47.40625 C 42.945312 -47.40625 47.003906 -48.570312 49.765625 -50.90625 C 52.523438 -53.25 53.90625 -57.015625 53.90625 -62.203125 C 53.90625 -66.953125 52.484375 -70.410156 49.640625 -72.578125 C 46.796875 -74.742188 42.316406 -75.828125 36.203125 -75.828125 L 27.140625 -75.828125 Z M 27.140625 -47.40625 "/></g></g></g><g fill="#f8f8f8" fill-opacity="1"><g transform="translate(693.345024, 442.930841)"><g><path d="M 44.09375 -89.984375 C 52 -89.984375 58.835938 -88.195312 64.609375 -84.625 C 70.390625 -81.0625 74.832031 -75.835938 77.9375 -68.953125 C 81.039062 -62.066406 82.59375 -53.78125 82.59375 -44.09375 C 82.59375 -34.5 81.019531 -26.257812 77.875 -19.375 C 74.726562 -12.488281 70.265625 -7.21875 64.484375 -3.5625 C 58.710938 0.0820312 51.914062 1.90625 44.09375 1.90625 C 36.195312 1.90625 29.359375 0.125 23.578125 -3.4375 C 17.796875 -7.007812 13.332031 -12.234375 10.1875 -19.109375 C 7.050781 -25.992188 5.484375 -34.28125 5.484375 -43.96875 C 5.484375 -53.488281 7.050781 -61.707031 10.1875 -68.625 C 13.332031 -75.550781 17.816406 -80.84375 23.640625 -84.5 C 29.460938 -88.15625 36.28125 -89.984375 44.09375 -89.984375 Z M 44.09375 -77.109375 C 37.300781 -77.109375 32.117188 -74.453125 28.546875 -69.140625 C 24.984375 -63.828125 23.203125 -55.4375 23.203125 -43.96875 C 23.203125 -21.96875 30.164062 -10.96875 44.09375 -10.96875 C 50.894531 -10.96875 56.054688 -13.597656 59.578125 -18.859375 C 63.109375 -24.128906 64.875 -32.539062 64.875 -44.09375 C 64.875 -55.570312 63.109375 -63.941406 59.578125 -69.203125 C 56.054688 -74.472656 50.894531 -77.109375 44.09375 -77.109375 Z M 44.09375 -77.109375 "/></g></g></g><g fill="#f8f8f8" fill-opacity="1"><g transform="translate(781.406164, 442.930841)"><g><path d="M 36.328125 -88.0625 C 47.628906 -88.0625 56.398438 -85.722656 62.640625 -81.046875 C 68.890625 -76.378906 72.015625 -69.375 72.015625 -60.03125 C 72.015625 -50.257812 68.867188 -42.929688 62.578125 -38.046875 C 56.285156 -33.160156 47.914062 -30.71875 37.46875 -30.71875 L 27.140625 -30.71875 L 27.140625 0 L 10.328125 0 L 10.328125 -88.0625 Z M 36.203125 -43.328125 C 42.234375 -43.328125 46.773438 -44.582031 49.828125 -47.09375 C 52.890625 -49.601562 54.421875 -53.914062 54.421875 -60.03125 C 54.421875 -70.476562 48.347656 -75.703125 36.203125 -75.703125 L 27.140625 -75.703125 L 27.140625 -43.328125 Z M 36.203125 -43.328125 "/></g></g></g><text x="40%" y="87%" font-size="1.5em" font-family="Arial, sans-serif" fill="white">https://demo.iggy.social</text></svg>