<svg xmlns="http://www.w3.org/2000/svg" xmlns:xlink="http://www.w3.org/1999/xlink" width="1600" zoomAndPan="magnify" viewBox="0 0 1200 675.000002" height="900" preserveAspectRatio="xMidYMid meet" version="1.0"><defs><g/><clipPath id="d5e22717d2"><path d="M 0.886719 0 L 1199.113281 0 L 1199.113281 674 L 0.886719 674 Z M 0.886719 0 " clip-rule="nonzero"/></clipPath><clipPath id="95e7466725"><path d="M 390.714844 198.492188 L 809.34375 198.492188 L 809.34375 475.582031 L 390.714844 475.582031 Z M 390.714844 198.492188 " clip-rule="nonzero"/></clipPath></defs><g clip-path="url(#d5e22717d2)"><path fill="#ffffff" d="M 0.886719 0 L 1199.113281 0 L 1199.113281 674 L 0.886719 674 Z M 0.886719 0 " fill-opacity="1" fill-rule="nonzero"/><path fill="#8e85e6" d="M 0.886719 0 L 1199.113281 0 L 1199.113281 674 L 0.886719 674 Z M 0.886719 0 " fill-opacity="1" fill-rule="nonzero"/></g><g clip-path="url(#95e7466725)"><path fill="#f8f8f8" d="M 400.925781 475.5 C 399.238281 475.5 397.554688 475.164062 396.203125 474.488281 C 392.828125 472.800781 390.804688 469.425781 390.804688 465.378906 L 390.804688 316.582031 C 390.804688 251.464844 443.777344 198.492188 508.894531 198.492188 L 687.71875 198.492188 C 754.863281 198.492188 809.183594 252.8125 809.183594 319.957031 C 809.183594 387.101562 754.863281 441.421875 687.71875 441.421875 L 453.5625 441.421875 L 406.664062 473.8125 C 404.976562 474.824219 402.953125 475.5 400.925781 475.5 Z M 508.894531 211.988281 C 451.199219 211.988281 404.300781 258.886719 404.300781 316.582031 L 404.300781 458.96875 L 449.511719 427.925781 L 687.71875 427.925781 C 747.101562 427.925781 795.6875 379.339844 795.6875 319.957031 C 795.6875 260.574219 747.101562 211.988281 687.71875 211.988281 Z M 508.894531 211.988281 " fill-opacity="1" fill-rule="nonzero"/></g><g fill="#f8f8f8" fill-opacity="1"><g transform="translate(424.039464, 385.192268)"><g><path d="M 33.609375 -109.03125 L 33.609375 0 L 12.78125 0 L 12.78125 -109.03125 Z M 33.609375 -109.03125 "/></g></g></g><g fill="#f8f8f8" fill-opacity="1"><g transform="translate(470.429267, 385.192268)"><g><path d="M 56.796875 -111.390625 C 63.953125 -111.390625 70.289062 -110.3125 75.8125 -108.15625 C 81.332031 -106 86.566406 -102.816406 91.515625 -98.609375 L 80.3125 -86.9375 C 76.414062 -89.988281 72.757812 -92.195312 69.34375 -93.5625 C 65.925781 -94.925781 61.957031 -95.609375 57.4375 -95.609375 C 49.019531 -95.609375 42.128906 -92.242188 36.765625 -85.515625 C 31.398438 -78.785156 28.71875 -68.476562 28.71875 -54.59375 C 28.71875 -40.070312 30.847656 -29.601562 35.109375 -23.1875 C 39.367188 -16.769531 45.863281 -13.5625 54.59375 -13.5625 C 61.21875 -13.5625 67.003906 -14.984375 71.953125 -17.828125 L 71.953125 -46.234375 L 55.53125 -46.234375 L 53.328125 -61.6875 L 92.453125 -61.6875 L 92.453125 -8.359375 C 80.671875 -1.210938 68.15625 2.359375 54.90625 2.359375 C 39.34375 2.359375 27.429688 -2.476562 19.171875 -12.15625 C 10.910156 -21.832031 6.78125 -35.976562 6.78125 -54.59375 C 6.78125 -66.476562 9.015625 -76.707031 13.484375 -85.28125 C 17.960938 -93.851562 23.988281 -100.347656 31.5625 -104.765625 C 39.132812 -109.179688 47.546875 -111.390625 56.796875 -111.390625 Z M 56.796875 -111.390625 "/></g></g></g><g fill="#f8f8f8" fill-opacity="1"><g transform="translate(571.098314, 385.192268)"><g><path d="M 56.796875 -111.390625 C 63.953125 -111.390625 70.289062 -110.3125 75.8125 -108.15625 C 81.332031 -106 86.566406 -102.816406 91.515625 -98.609375 L 80.3125 -86.9375 C 76.414062 -89.988281 72.757812 -92.195312 69.34375 -93.5625 C 65.925781 -94.925781 61.957031 -95.609375 57.4375 -95.609375 C 49.019531 -95.609375 42.128906 -92.242188 36.765625 -85.515625 C 31.398438 -78.785156 28.71875 -68.476562 28.71875 -54.59375 C 28.71875 -40.070312 30.847656 -29.601562 35.109375 -23.1875 C 39.367188 -16.769531 45.863281 -13.5625 54.59375 -13.5625 C 61.21875 -13.5625 67.003906 -14.984375 71.953125 -17.828125 L 71.953125 -46.234375 L 55.53125 -46.234375 L 53.328125 -61.6875 L 92.453125 -61.6875 L 92.453125 -8.359375 C 80.671875 -1.210938 68.15625 2.359375 54.90625 2.359375 C 39.34375 2.359375 27.429688 -2.476562 19.171875 -12.15625 C 10.910156 -21.832031 6.78125 -35.976562 6.78125 -54.59375 C 6.78125 -66.476562 9.015625 -76.707031 13.484375 -85.28125 C 17.960938 -93.851562 23.988281 -100.347656 31.5625 -104.765625 C 39.132812 -109.179688 47.546875 -111.390625 56.796875 -111.390625 Z M 56.796875 -111.390625 "/></g></g></g><g fill="#f8f8f8" fill-opacity="1"><g transform="translate(671.767361, 385.192268)"><g><path d="M 90.875 -109.03125 L 55.859375 -41.34375 L 55.859375 0 L 34.71875 0 L 34.71875 -41.1875 L -0.3125 -109.03125 L 22.71875 -109.03125 L 45.75 -58.375 L 68.796875 -109.03125 Z M 90.875 -109.03125 "/></g></g></g><text x="40%" y="87%" font-size="1.5em" font-family="Arial, sans-serif" fill="white">https://demo.iggy.social</text></svg>