<svg xmlns="http://www.w3.org/2000/svg" xmlns:xlink="http://www.w3.org/1999/xlink" width="1600" zoomAndPan="magnify" viewBox="0 0 1200 675.000002" height="900" preserveAspectRatio="xMidYMid meet" version="1.0"><defs><g/><clipPath id="5e816351e7"><path d="M 0.886719 0 L 1199.113281 0 L 1199.113281 674 L 0.886719 674 Z M 0.886719 0 " clip-rule="nonzero"/></clipPath></defs><g clip-path="url(#5e816351e7)"><path fill="#ffffff" d="M 0.886719 0 L 1199.113281 0 L 1199.113281 674 L 0.886719 674 Z M 0.886719 0 " fill-opacity="1" fill-rule="nonzero"/><path fill="#8e85e6" d="M 0.886719 0 L 1199.113281 0 L 1199.113281 674 L 0.886719 674 Z M 0.886719 0 " fill-opacity="1" fill-rule="nonzero"/></g><g fill="#f8f8f8" fill-opacity="1"><g transform="translate(127.2739, 378.906179)"><g><path d="M 75.3125 0 L 53.53125 0 L 23.328125 -71.234375 C 24.085938 -64.953125 24.65625 -59.257812 25.03125 -54.15625 C 25.414062 -49.0625 25.609375 -42.988281 25.609375 -35.9375 L 25.609375 0 L 10.328125 0 L 10.328125 -88.0625 L 31.609375 -88.0625 L 62.3125 -16.6875 C 61.800781 -20.09375 61.289062 -24.578125 60.78125 -30.140625 C 60.269531 -35.703125 60.015625 -41.242188 60.015625 -46.765625 L 60.015625 -88.0625 L 75.3125 -88.0625 Z M 75.3125 0 "/></g></g></g><g fill="#f8f8f8" fill-opacity="1"><g transform="translate(212.89739, 378.906179)"><g><path d="M 10.328125 0 L 10.328125 -88.0625 L 60.15625 -88.0625 L 58.359375 -75.578125 L 27.140625 -75.578125 L 27.140625 -49.1875 L 54.28125 -49.1875 L 54.28125 -36.703125 L 27.140625 -36.703125 L 27.140625 0 Z M 10.328125 0 "/></g></g></g><g fill="#f8f8f8" fill-opacity="1"><g transform="translate(275.203749, 378.906179)"><g><path d="M 66.90625 -88.0625 L 65.125 -74.671875 L 42.1875 -74.671875 L 42.1875 0 L 25.234375 0 L 25.234375 -74.671875 L 1.53125 -74.671875 L 1.53125 -88.0625 Z M 66.90625 -88.0625 "/></g></g></g><g fill="#f8f8f8" fill-opacity="1"><g transform="translate(342.73417, 378.906179)"><g/></g></g><g fill="#f8f8f8" fill-opacity="1"><g transform="translate(374.588135, 378.906179)"><g><path d="M 27.140625 -88.0625 L 27.140625 -13.765625 L 62.4375 -13.765625 L 60.53125 0 L 10.328125 0 L 10.328125 -88.0625 Z M 27.140625 -88.0625 "/></g></g></g><g fill="#f8f8f8" fill-opacity="1"><g transform="translate(439.060568, 378.906179)"><g><path d="M 56.96875 0 L 51.484375 -20.390625 L 22.296875 -20.390625 L 16.828125 0 L -0.640625 0 L 26.765625 -88.0625 L 47.53125 -88.0625 L 74.8125 0 Z M 25.609375 -33.140625 L 48.046875 -33.140625 L 36.828125 -75.1875 Z M 25.609375 -33.140625 "/></g></g></g><g fill="#f8f8f8" fill-opacity="1"><g transform="translate(513.344014, 378.906179)"><g><path d="M 74.546875 -28.796875 C 74.546875 -22.847656 73.289062 -17.554688 70.78125 -12.921875 C 68.28125 -8.296875 64.546875 -4.664062 59.578125 -2.03125 C 54.609375 0.59375 48.640625 1.90625 41.671875 1.90625 C 31.140625 1.90625 23.066406 -0.875 17.453125 -6.4375 C 11.847656 -12 9.046875 -19.453125 9.046875 -28.796875 L 9.046875 -88.0625 L 25.875 -88.0625 L 25.875 -29.6875 C 25.875 -23.488281 27.164062 -18.859375 29.75 -15.796875 C 32.34375 -12.742188 36.316406 -11.21875 41.671875 -11.21875 C 47.109375 -11.21875 51.125 -12.742188 53.71875 -15.796875 C 56.3125 -18.859375 57.609375 -23.488281 57.609375 -29.6875 L 57.609375 -88.0625 L 74.546875 -88.0625 Z M 74.546875 -28.796875 "/></g></g></g><g fill="#f8f8f8" fill-opacity="1"><g transform="translate(596.928844, 378.906179)"><g><path d="M 75.3125 0 L 53.53125 0 L 23.328125 -71.234375 C 24.085938 -64.953125 24.65625 -59.257812 25.03125 -54.15625 C 25.414062 -49.0625 25.609375 -42.988281 25.609375 -35.9375 L 25.609375 0 L 10.328125 0 L 10.328125 -88.0625 L 31.609375 -88.0625 L 62.3125 -16.6875 C 61.800781 -20.09375 61.289062 -24.578125 60.78125 -30.140625 C 60.269531 -35.703125 60.015625 -41.242188 60.015625 -46.765625 L 60.015625 -88.0625 L 75.3125 -88.0625 Z M 75.3125 0 "/></g></g></g><g fill="#f8f8f8" fill-opacity="1"><g transform="translate(682.552333, 378.906179)"><g><path d="M 43.96875 -89.96875 C 49.320312 -89.96875 53.992188 -89.203125 57.984375 -87.671875 C 61.972656 -86.148438 65.878906 -83.816406 69.703125 -80.671875 L 61.171875 -70.734375 C 55.984375 -74.890625 50.546875 -76.96875 44.859375 -76.96875 C 38.316406 -76.96875 33.066406 -74.332031 29.109375 -69.0625 C 25.160156 -63.800781 23.1875 -55.519531 23.1875 -44.21875 C 23.1875 -33.175781 25.140625 -24.976562 29.046875 -19.625 C 32.960938 -14.269531 38.234375 -11.59375 44.859375 -11.59375 C 48.335938 -11.59375 51.4375 -12.207031 54.15625 -13.4375 C 56.875 -14.675781 59.765625 -16.441406 62.828125 -18.734375 L 70.734375 -8.796875 C 67.753906 -5.734375 63.988281 -3.179688 59.4375 -1.140625 C 54.894531 0.890625 49.820312 1.90625 44.21875 1.90625 C 36.570312 1.90625 29.816406 0.125 23.953125 -3.4375 C 18.097656 -7.007812 13.554688 -12.253906 10.328125 -19.171875 C 7.097656 -26.097656 5.484375 -34.445312 5.484375 -44.21875 C 5.484375 -53.820312 7.160156 -62.0625 10.515625 -68.9375 C 13.867188 -75.820312 18.453125 -81.046875 24.265625 -84.609375 C 30.085938 -88.179688 36.65625 -89.96875 43.96875 -89.96875 Z M 43.96875 -89.96875 "/></g></g></g><g fill="#f8f8f8" fill-opacity="1"><g transform="translate(754.924556, 378.906179)"><g><path d="M 58.5 0 L 58.5 -39.375 L 27.140625 -39.375 L 27.140625 0 L 10.328125 0 L 10.328125 -88.0625 L 27.140625 -88.0625 L 27.140625 -52.765625 L 58.5 -52.765625 L 58.5 -88.0625 L 75.4375 -88.0625 L 75.4375 0 Z M 58.5 0 "/></g></g></g><g fill="#f8f8f8" fill-opacity="1"><g transform="translate(840.548045, 378.906179)"><g><path d="M 36.3125 -88.0625 C 47.613281 -88.0625 56.382812 -85.722656 62.625 -81.046875 C 68.875 -76.378906 72 -69.367188 72 -60.015625 C 72 -50.253906 68.851562 -42.929688 62.5625 -38.046875 C 56.28125 -33.160156 47.914062 -30.71875 37.46875 -30.71875 L 27.140625 -30.71875 L 27.140625 0 L 10.328125 0 L 10.328125 -88.0625 Z M 36.1875 -43.328125 C 42.21875 -43.328125 46.765625 -44.578125 49.828125 -47.078125 C 52.890625 -49.585938 54.421875 -53.898438 54.421875 -60.015625 C 54.421875 -70.472656 48.34375 -75.703125 36.1875 -75.703125 L 27.140625 -75.703125 L 27.140625 -43.328125 Z M 36.1875 -43.328125 "/></g></g></g><g fill="#f8f8f8" fill-opacity="1"><g transform="translate(915.850845, 378.906179)"><g><path d="M 56.96875 0 L 51.484375 -20.390625 L 22.296875 -20.390625 L 16.828125 0 L -0.640625 0 L 26.765625 -88.0625 L 47.53125 -88.0625 L 74.8125 0 Z M 25.609375 -33.140625 L 48.046875 -33.140625 L 36.828125 -75.1875 Z M 25.609375 -33.140625 "/></g></g></g><g fill="#f8f8f8" fill-opacity="1"><g transform="translate(990.134291, 378.906179)"><g><path d="M 31.984375 -88.0625 C 45.660156 -88.0625 56.597656 -84.957031 64.796875 -78.75 C 72.992188 -72.550781 77.09375 -61.125 77.09375 -44.46875 C 77.09375 -28.15625 73.054688 -16.664062 64.984375 -10 C 56.921875 -3.332031 46.6875 0 34.28125 0 L 10.328125 0 L 10.328125 -88.0625 Z M 27.140625 -75.4375 L 27.140625 -12.609375 L 35.421875 -12.609375 C 42.898438 -12.609375 48.765625 -14.921875 53.015625 -19.546875 C 57.265625 -24.179688 59.390625 -32.488281 59.390625 -44.46875 C 59.390625 -52.800781 58.304688 -59.238281 56.140625 -63.78125 C 53.972656 -68.320312 51.125 -71.398438 47.59375 -73.015625 C 44.070312 -74.628906 39.847656 -75.4375 34.921875 -75.4375 Z M 27.140625 -75.4375 "/></g></g></g><text x="40%" y="87%" font-size="1.5em" font-family="Arial, sans-serif" fill="white">https://demo.iggy.social</text></svg>