<svg xmlns="http://www.w3.org/2000/svg" xmlns:xlink="http://www.w3.org/1999/xlink" width="1600" zoomAndPan="magnify" viewBox="0 0 1200 675.000002" height="900" preserveAspectRatio="xMidYMid meet" version="1.0"><defs><g/><clipPath id="664fbf12ac"><path d="M 0.886719 0 L 1199.113281 0 L 1199.113281 674 L 0.886719 674 Z M 0.886719 0 " clip-rule="nonzero"/></clipPath></defs><g clip-path="url(#664fbf12ac)"><path fill="#ffffff" d="M 0.886719 0 L 1199.113281 0 L 1199.113281 674 L 0.886719 674 Z M 0.886719 0 " fill-opacity="1" fill-rule="nonzero"/><path fill="#8e85e6" d="M 0.886719 0 L 1199.113281 0 L 1199.113281 674 L 0.886719 674 Z M 0.886719 0 " fill-opacity="1" fill-rule="nonzero"/></g><g fill="#f8f8f8" fill-opacity="1"><g transform="translate(188.552251, 378.905944)"><g><path d="M 35.6875 -89.96875 C 41.882812 -89.96875 47.273438 -89.078125 51.859375 -87.296875 C 56.453125 -85.515625 60.742188 -82.796875 64.734375 -79.140625 L 56.453125 -69.578125 C 53.304688 -72.210938 50.140625 -74.125 46.953125 -75.3125 C 43.773438 -76.5 40.359375 -77.09375 36.703125 -77.09375 C 32.617188 -77.09375 29.320312 -76.179688 26.8125 -74.359375 C 24.3125 -72.535156 23.0625 -69.96875 23.0625 -66.65625 C 23.0625 -64.445312 23.550781 -62.617188 24.53125 -61.171875 C 25.507812 -59.722656 27.269531 -58.363281 29.8125 -57.09375 C 32.363281 -55.820312 36.144531 -54.421875 41.15625 -52.890625 C 49.820312 -50.171875 56.34375 -46.789062 60.71875 -42.75 C 65.09375 -38.71875 67.28125 -32.835938 67.28125 -25.109375 C 67.28125 -19.835938 65.941406 -15.160156 63.265625 -11.078125 C 60.597656 -7.003906 56.753906 -3.820312 51.734375 -1.53125 C 46.722656 0.757812 40.773438 1.90625 33.890625 1.90625 C 27.179688 1.90625 21.171875 0.820312 15.859375 -1.34375 C 10.554688 -3.507812 5.992188 -6.457031 2.171875 -10.1875 L 10.828125 -19.875 C 14.234375 -16.988281 17.757812 -14.800781 21.40625 -13.3125 C 25.0625 -11.832031 29.097656 -11.09375 33.515625 -11.09375 C 38.359375 -11.09375 42.265625 -12.238281 45.234375 -14.53125 C 48.210938 -16.820312 49.703125 -20.050781 49.703125 -24.21875 C 49.703125 -26.757812 49.191406 -28.859375 48.171875 -30.515625 C 47.148438 -32.171875 45.40625 -33.65625 42.9375 -34.96875 C 40.476562 -36.289062 36.910156 -37.675781 32.234375 -39.125 C 22.890625 -42.007812 16.132812 -45.488281 11.96875 -49.5625 C 7.8125 -53.644531 5.734375 -59 5.734375 -65.625 C 5.734375 -70.46875 7.003906 -74.71875 9.546875 -78.375 C 12.097656 -82.03125 15.644531 -84.875 20.1875 -86.90625 C 24.738281 -88.945312 29.90625 -89.96875 35.6875 -89.96875 Z M 35.6875 -89.96875 "/></g></g></g><g fill="#f8f8f8" fill-opacity="1"><g transform="translate(259.905143, 378.905944)"><g><path d="M 66.90625 -88.0625 L 65.125 -74.671875 L 42.1875 -74.671875 L 42.1875 0 L 25.234375 0 L 25.234375 -74.671875 L 1.53125 -74.671875 L 1.53125 -88.0625 Z M 66.90625 -88.0625 "/></g></g></g><g fill="#f8f8f8" fill-opacity="1"><g transform="translate(327.435564, 378.905944)"><g><path d="M 56.96875 0 L 51.484375 -20.390625 L 22.296875 -20.390625 L 16.828125 0 L -0.640625 0 L 26.765625 -88.0625 L 47.53125 -88.0625 L 74.8125 0 Z M 25.609375 -33.140625 L 48.046875 -33.140625 L 36.828125 -75.1875 Z M 25.609375 -33.140625 "/></g></g></g><g fill="#f8f8f8" fill-opacity="1"><g transform="translate(401.719033, 378.905944)"><g><path d="M 27.140625 -88.0625 L 27.140625 0 L 10.328125 0 L 10.328125 -88.0625 Z M 76.59375 -88.0625 L 46.125 -48.171875 L 79.015625 0 L 59 0 L 27.90625 -47.03125 L 58.359375 -88.0625 Z M 76.59375 -88.0625 "/></g></g></g><g fill="#f8f8f8" fill-opacity="1"><g transform="translate(479.824973, 378.905944)"><g><path d="M 61.421875 -88.0625 L 59.640625 -75.578125 L 27.140625 -75.578125 L 27.140625 -50.96875 L 55.4375 -50.96875 L 55.4375 -38.484375 L 27.140625 -38.484375 L 27.140625 -12.609375 L 61.9375 -12.609375 L 61.9375 0 L 10.328125 0 L 10.328125 -88.0625 Z M 61.421875 -88.0625 "/></g></g></g><g fill="#f8f8f8" fill-opacity="1"><g transform="translate(547.355394, 378.905944)"><g/></g></g><g fill="#f8f8f8" fill-opacity="1"><g transform="translate(579.209337, 378.905944)"><g><path d="M 39.25 -89.96875 C 44.34375 -89.96875 48.820312 -89.117188 52.6875 -87.421875 C 56.5625 -85.722656 59.535156 -83.363281 61.609375 -80.34375 C 63.691406 -77.332031 64.734375 -73.914062 64.734375 -70.09375 C 64.734375 -65.082031 63.222656 -60.726562 60.203125 -57.03125 C 57.191406 -53.332031 52.925781 -49.742188 47.40625 -46.265625 L 67.03125 -27.78125 C 69.832031 -33.894531 72.082031 -40.519531 73.78125 -47.65625 L 87.9375 -43.453125 C 84.789062 -33.941406 80.921875 -25.828125 76.328125 -19.109375 L 91.25 -5.609375 L 78.125 1.90625 L 67.03125 -8.796875 C 59.382812 -1.660156 50.039062 1.90625 39 1.90625 C 33.050781 1.90625 27.800781 0.910156 23.25 -1.078125 C 18.707031 -3.078125 15.160156 -5.925781 12.609375 -9.625 C 10.066406 -13.320312 8.796875 -17.585938 8.796875 -22.421875 C 8.796875 -27.609375 10.238281 -32.132812 13.125 -36 C 16.007812 -39.863281 20.425781 -43.707031 26.375 -47.53125 C 21.957031 -51.863281 18.789062 -55.601562 16.875 -58.75 C 14.96875 -61.894531 14.015625 -65.460938 14.015625 -69.453125 C 14.015625 -73.191406 14.96875 -76.609375 16.875 -79.703125 C 18.789062 -82.804688 21.640625 -85.289062 25.421875 -87.15625 C 29.203125 -89.03125 33.8125 -89.96875 39.25 -89.96875 Z M 39.375 -78.890625 C 36.40625 -78.890625 34.070312 -78.035156 32.375 -76.328125 C 30.675781 -74.628906 29.828125 -72.335938 29.828125 -69.453125 C 29.828125 -66.898438 30.484375 -64.582031 31.796875 -62.5 C 33.109375 -60.425781 35.296875 -57.898438 38.359375 -54.921875 C 41.929688 -57.210938 44.609375 -59.484375 46.390625 -61.734375 C 48.171875 -63.992188 49.0625 -66.566406 49.0625 -69.453125 C 49.0625 -72.335938 48.191406 -74.628906 46.453125 -76.328125 C 44.710938 -78.035156 42.351562 -78.890625 39.375 -78.890625 Z M 35.6875 -38.734375 C 32.28125 -36.441406 29.789062 -34.0625 28.21875 -31.59375 C 26.65625 -29.132812 25.875 -26.332031 25.875 -23.1875 C 25.875 -19.195312 27.296875 -16.03125 30.140625 -13.6875 C 32.984375 -11.351562 36.785156 -10.1875 41.546875 -10.1875 C 44.859375 -10.1875 47.851562 -10.757812 50.53125 -11.90625 C 53.207031 -13.0625 55.816406 -14.742188 58.359375 -16.953125 Z M 35.6875 -38.734375 "/></g></g></g><g fill="#f8f8f8" fill-opacity="1"><g transform="translate(674.2616, 378.905944)"><g/></g></g><g fill="#f8f8f8" fill-opacity="1"><g transform="translate(706.115543, 378.905944)"><g><path d="M 61.421875 -88.0625 L 59.640625 -75.578125 L 27.140625 -75.578125 L 27.140625 -50.96875 L 55.4375 -50.96875 L 55.4375 -38.484375 L 27.140625 -38.484375 L 27.140625 -12.609375 L 61.9375 -12.609375 L 61.9375 0 L 10.328125 0 L 10.328125 -88.0625 Z M 61.421875 -88.0625 "/></g></g></g><g fill="#f8f8f8" fill-opacity="1"><g transform="translate(773.645964, 378.905944)"><g><path d="M 56.96875 0 L 51.484375 -20.390625 L 22.296875 -20.390625 L 16.828125 0 L -0.640625 0 L 26.765625 -88.0625 L 47.53125 -88.0625 L 74.8125 0 Z M 25.609375 -33.140625 L 48.046875 -33.140625 L 36.828125 -75.1875 Z M 25.609375 -33.140625 "/></g></g></g><g fill="#f8f8f8" fill-opacity="1"><g transform="translate(847.929411, 378.905944)"><g><path d="M 37.84375 -35.296875 L 27.140625 -35.296875 L 27.140625 0 L 10.328125 0 L 10.328125 -88.0625 L 36.578125 -88.0625 C 59.859375 -88.0625 71.5 -79.4375 71.5 -62.1875 C 71.5 -56.320312 70.050781 -51.476562 67.15625 -47.65625 C 64.269531 -43.832031 59.769531 -40.734375 53.65625 -38.359375 L 76.71875 0 L 57.34375 0 Z M 27.140625 -47.40625 L 37.59375 -47.40625 C 42.945312 -47.40625 47.003906 -48.570312 49.765625 -50.90625 C 52.523438 -53.25 53.90625 -57.007812 53.90625 -62.1875 C 53.90625 -66.945312 52.484375 -70.410156 49.640625 -72.578125 C 46.796875 -74.742188 42.3125 -75.828125 36.1875 -75.828125 L 27.140625 -75.828125 Z M 27.140625 -47.40625 "/></g></g></g><g fill="#f8f8f8" fill-opacity="1"><g transform="translate(925.780522, 378.905944)"><g><path d="M 75.3125 0 L 53.53125 0 L 23.328125 -71.234375 C 24.085938 -64.953125 24.65625 -59.257812 25.03125 -54.15625 C 25.414062 -49.0625 25.609375 -42.988281 25.609375 -35.9375 L 25.609375 0 L 10.328125 0 L 10.328125 -88.0625 L 31.609375 -88.0625 L 62.3125 -16.6875 C 61.800781 -20.09375 61.289062 -24.578125 60.78125 -30.140625 C 60.269531 -35.703125 60.015625 -41.242188 60.015625 -46.765625 L 60.015625 -88.0625 L 75.3125 -88.0625 Z M 75.3125 0 "/></g></g></g><text x="40%" y="87%" font-size="1.5em" font-family="Arial, sans-serif" fill="white">https://demo.iggy.social</text></svg>