<svg xmlns="http://www.w3.org/2000/svg" xmlns:xlink="http://www.w3.org/1999/xlink" width="1600" zoomAndPan="magnify" viewBox="0 0 1200 675.000002" height="900" preserveAspectRatio="xMidYMid meet" version="1.0"><defs><g/><clipPath id="c3031c7fc8"><path d="M 0.886719 0 L 1199.113281 0 L 1199.113281 674 L 0.886719 674 Z M 0.886719 0 " clip-rule="nonzero"/></clipPath></defs><g clip-path="url(#c3031c7fc8)"><path fill="#ffffff" d="M 0.886719 0 L 1199.113281 0 L 1199.113281 674 L 0.886719 674 Z M 0.886719 0 " fill-opacity="1" fill-rule="nonzero"/><path fill="#8e85e6" d="M 0.886719 0 L 1199.113281 0 L 1199.113281 674 L 0.886719 674 Z M 0.886719 0 " fill-opacity="1" fill-rule="nonzero"/></g><g fill="#f8f8f8" fill-opacity="1"><g transform="translate(85.455462, 290.157178)"><g><path d="M 43.96875 -89.984375 C 49.320312 -89.984375 53.992188 -89.21875 57.984375 -87.6875 C 61.984375 -86.15625 65.894531 -83.816406 69.71875 -80.671875 L 61.171875 -70.734375 C 55.992188 -74.898438 50.554688 -76.984375 44.859375 -76.984375 C 38.316406 -76.984375 33.070312 -74.347656 29.125 -69.078125 C 25.175781 -63.804688 23.203125 -55.519531 23.203125 -44.21875 C 23.203125 -33.175781 25.15625 -24.976562 29.0625 -19.625 C 32.96875 -14.269531 38.234375 -11.59375 44.859375 -11.59375 C 48.347656 -11.59375 51.453125 -12.207031 54.171875 -13.4375 C 56.890625 -14.675781 59.773438 -16.441406 62.828125 -18.734375 L 70.734375 -8.796875 C 67.765625 -5.734375 64.003906 -3.179688 59.453125 -1.140625 C 54.910156 0.890625 49.832031 1.90625 44.21875 1.90625 C 36.570312 1.90625 29.816406 0.125 23.953125 -3.4375 C 18.097656 -7.007812 13.554688 -12.253906 10.328125 -19.171875 C 7.097656 -26.097656 5.484375 -34.445312 5.484375 -44.21875 C 5.484375 -53.820312 7.160156 -62.066406 10.515625 -68.953125 C 13.867188 -75.835938 18.457031 -81.0625 24.28125 -84.625 C 30.101562 -88.195312 36.664062 -89.984375 43.96875 -89.984375 Z M 43.96875 -89.984375 "/></g></g></g><g fill="#f8f8f8" fill-opacity="1"><g transform="translate(157.841484, 290.157178)"><g><path d="M 37.859375 -35.296875 L 27.140625 -35.296875 L 27.140625 0 L 10.328125 0 L 10.328125 -88.0625 L 36.578125 -88.0625 C 59.859375 -88.0625 71.5 -79.441406 71.5 -62.203125 C 71.5 -56.335938 70.050781 -51.492188 67.15625 -47.671875 C 64.269531 -43.847656 59.769531 -40.742188 53.65625 -38.359375 L 76.734375 0 L 57.359375 0 Z M 27.140625 -47.40625 L 37.59375 -47.40625 C 42.945312 -47.40625 47.003906 -48.570312 49.765625 -50.90625 C 52.523438 -53.25 53.90625 -57.015625 53.90625 -62.203125 C 53.90625 -66.953125 52.484375 -70.410156 49.640625 -72.578125 C 46.796875 -74.742188 42.316406 -75.828125 36.203125 -75.828125 L 27.140625 -75.828125 Z M 27.140625 -47.40625 "/></g></g></g><g fill="#f8f8f8" fill-opacity="1"><g transform="translate(235.707435, 290.157178)"><g><path d="M 61.4375 -88.0625 L 59.640625 -75.578125 L 27.140625 -75.578125 L 27.140625 -50.984375 L 55.4375 -50.984375 L 55.4375 -38.484375 L 27.140625 -38.484375 L 27.140625 -12.625 L 61.9375 -12.625 L 61.9375 0 L 10.328125 0 L 10.328125 -88.0625 Z M 61.4375 -88.0625 "/></g></g></g><g fill="#f8f8f8" fill-opacity="1"><g transform="translate(303.250729, 290.157178)"><g><path d="M 56.96875 0 L 51.484375 -20.390625 L 22.296875 -20.390625 L 16.828125 0 L -0.640625 0 L 26.765625 -88.0625 L 47.546875 -88.0625 L 74.8125 0 Z M 25.625 -33.140625 L 48.046875 -33.140625 L 36.828125 -75.203125 Z M 25.625 -33.140625 "/></g></g></g><g fill="#f8f8f8" fill-opacity="1"><g transform="translate(377.548355, 290.157178)"><g><path d="M 66.90625 -88.0625 L 65.125 -74.6875 L 42.1875 -74.6875 L 42.1875 0 L 25.234375 0 L 25.234375 -74.6875 L 1.53125 -74.6875 L 1.53125 -88.0625 Z M 66.90625 -88.0625 "/></g></g></g><g fill="#f8f8f8" fill-opacity="1"><g transform="translate(445.091659, 290.157178)"><g><path d="M 61.4375 -88.0625 L 59.640625 -75.578125 L 27.140625 -75.578125 L 27.140625 -50.984375 L 55.4375 -50.984375 L 55.4375 -38.484375 L 27.140625 -38.484375 L 27.140625 -12.625 L 61.9375 -12.625 L 61.9375 0 L 10.328125 0 L 10.328125 -88.0625 Z M 61.4375 -88.0625 "/></g></g></g><g fill="#f8f8f8" fill-opacity="1"><g transform="translate(512.634964, 290.157178)"><g/></g></g><g fill="#f8f8f8" fill-opacity="1"><g transform="translate(544.49499, 290.157178)"><g><path d="M 73.40625 -88.0625 L 45.125 -33.390625 L 45.125 0 L 28.046875 0 L 28.046875 -33.265625 L -0.25 -88.0625 L 18.359375 -88.0625 L 36.96875 -47.15625 L 55.5625 -88.0625 Z M 73.40625 -88.0625 "/></g></g></g><g fill="#f8f8f8" fill-opacity="1"><g transform="translate(617.645649, 290.157178)"><g><path d="M 44.09375 -89.984375 C 52 -89.984375 58.835938 -88.195312 64.609375 -84.625 C 70.390625 -81.0625 74.832031 -75.835938 77.9375 -68.953125 C 81.039062 -62.066406 82.59375 -53.78125 82.59375 -44.09375 C 82.59375 -34.5 81.019531 -26.257812 77.875 -19.375 C 74.726562 -12.488281 70.265625 -7.21875 64.484375 -3.5625 C 58.710938 0.0820312 51.914062 1.90625 44.09375 1.90625 C 36.195312 1.90625 29.359375 0.125 23.578125 -3.4375 C 17.796875 -7.007812 13.332031 -12.234375 10.1875 -19.109375 C 7.050781 -25.992188 5.484375 -34.28125 5.484375 -43.96875 C 5.484375 -53.488281 7.050781 -61.707031 10.1875 -68.625 C 13.332031 -75.550781 17.816406 -80.84375 23.640625 -84.5 C 29.460938 -88.15625 36.28125 -89.984375 44.09375 -89.984375 Z M 44.09375 -77.109375 C 37.300781 -77.109375 32.117188 -74.453125 28.546875 -69.140625 C 24.984375 -63.828125 23.203125 -55.4375 23.203125 -43.96875 C 23.203125 -21.96875 30.164062 -10.96875 44.09375 -10.96875 C 50.894531 -10.96875 56.054688 -13.597656 59.578125 -18.859375 C 63.109375 -24.128906 64.875 -32.539062 64.875 -44.09375 C 64.875 -55.570312 63.109375 -63.941406 59.578125 -69.203125 C 56.054688 -74.472656 50.894531 -77.109375 44.09375 -77.109375 Z M 44.09375 -77.109375 "/></g></g></g><g fill="#f8f8f8" fill-opacity="1"><g transform="translate(705.706835, 290.157178)"><g><path d="M 74.5625 -28.796875 C 74.5625 -22.847656 73.304688 -17.554688 70.796875 -12.921875 C 68.296875 -8.296875 64.554688 -4.664062 59.578125 -2.03125 C 54.609375 0.59375 48.640625 1.90625 41.671875 1.90625 C 31.140625 1.90625 23.066406 -0.875 17.453125 -6.4375 C 11.847656 -12 9.046875 -19.453125 9.046875 -28.796875 L 9.046875 -88.0625 L 25.875 -88.0625 L 25.875 -29.703125 C 25.875 -23.492188 27.164062 -18.859375 29.75 -15.796875 C 32.34375 -12.742188 36.316406 -11.21875 41.671875 -11.21875 C 47.109375 -11.21875 51.125 -12.742188 53.71875 -15.796875 C 56.3125 -18.859375 57.609375 -23.492188 57.609375 -29.703125 L 57.609375 -88.0625 L 74.5625 -88.0625 Z M 74.5625 -28.796875 "/></g></g></g><g fill="#f8f8f8" fill-opacity="1"><g transform="translate(789.307588, 290.157178)"><g><path d="M 37.859375 -35.296875 L 27.140625 -35.296875 L 27.140625 0 L 10.328125 0 L 10.328125 -88.0625 L 36.578125 -88.0625 C 59.859375 -88.0625 71.5 -79.441406 71.5 -62.203125 C 71.5 -56.335938 70.050781 -51.492188 67.15625 -47.671875 C 64.269531 -43.847656 59.769531 -40.742188 53.65625 -38.359375 L 76.734375 0 L 57.359375 0 Z M 27.140625 -47.40625 L 37.59375 -47.40625 C 42.945312 -47.40625 47.003906 -48.570312 49.765625 -50.90625 C 52.523438 -53.25 53.90625 -57.015625 53.90625 -62.203125 C 53.90625 -66.953125 52.484375 -70.410156 49.640625 -72.578125 C 46.796875 -74.742188 42.316406 -75.828125 36.203125 -75.828125 L 27.140625 -75.828125 Z M 27.140625 -47.40625 "/></g></g></g><g fill="#f8f8f8" fill-opacity="1"><g transform="translate(867.173552, 290.157178)"><g/></g></g><g fill="#f8f8f8" fill-opacity="1"><g transform="translate(899.033577, 290.157178)"><g><path d="M 75.328125 0 L 53.53125 0 L 23.328125 -71.25 C 24.085938 -64.957031 24.660156 -59.257812 25.046875 -54.15625 C 25.429688 -49.0625 25.625 -42.988281 25.625 -35.9375 L 25.625 0 L 10.328125 0 L 10.328125 -88.0625 L 31.609375 -88.0625 L 62.328125 -16.703125 C 61.816406 -20.097656 61.304688 -24.578125 60.796875 -30.140625 C 60.285156 -35.703125 60.03125 -41.25 60.03125 -46.78125 L 60.03125 -88.0625 L 75.328125 -88.0625 Z M 75.328125 0 "/></g></g></g><g fill="#f8f8f8" fill-opacity="1"><g transform="translate(984.673393, 290.157178)"><g><path d="M 10.328125 0 L 10.328125 -88.0625 L 60.15625 -88.0625 L 58.375 -75.578125 L 27.140625 -75.578125 L 27.140625 -49.203125 L 54.296875 -49.203125 L 54.296875 -36.703125 L 27.140625 -36.703125 L 27.140625 0 Z M 10.328125 0 "/></g></g></g><g fill="#f8f8f8" fill-opacity="1"><g transform="translate(1046.991651, 290.157178)"><g><path d="M 66.90625 -88.0625 L 65.125 -74.6875 L 42.1875 -74.6875 L 42.1875 0 L 25.234375 0 L 25.234375 -74.6875 L 1.53125 -74.6875 L 1.53125 -88.0625 Z M 66.90625 -88.0625 "/></g></g></g><g fill="#f8f8f8" fill-opacity="1"><g transform="translate(245.963759, 442.930841)"><g><path d="M 43.96875 -89.984375 C 49.320312 -89.984375 53.992188 -89.21875 57.984375 -87.6875 C 61.984375 -86.15625 65.894531 -83.816406 69.71875 -80.671875 L 61.171875 -70.734375 C 55.992188 -74.898438 50.554688 -76.984375 44.859375 -76.984375 C 38.316406 -76.984375 33.070312 -74.347656 29.125 -69.078125 C 25.175781 -63.804688 23.203125 -55.519531 23.203125 -44.21875 C 23.203125 -33.175781 25.15625 -24.976562 29.0625 -19.625 C 32.96875 -14.269531 38.234375 -11.59375 44.859375 -11.59375 C 48.347656 -11.59375 51.453125 -12.207031 54.171875 -13.4375 C 56.890625 -14.675781 59.773438 -16.441406 62.828125 -18.734375 L 70.734375 -8.796875 C 67.765625 -5.734375 64.003906 -3.179688 59.453125 -1.140625 C 54.910156 0.890625 49.832031 1.90625 44.21875 1.90625 C 36.570312 1.90625 29.816406 0.125 23.953125 -3.4375 C 18.097656 -7.007812 13.554688 -12.253906 10.328125 -19.171875 C 7.097656 -26.097656 5.484375 -34.445312 5.484375 -44.21875 C 5.484375 -53.820312 7.160156 -62.066406 10.515625 -68.953125 C 13.867188 -75.835938 18.457031 -81.0625 24.28125 -84.625 C 30.101562 -88.195312 36.664062 -89.984375 43.96875 -89.984375 Z M 43.96875 -89.984375 "/></g></g></g><g fill="#f8f8f8" fill-opacity="1"><g transform="translate(318.349781, 442.930841)"><g><path d="M 44.09375 -89.984375 C 52 -89.984375 58.835938 -88.195312 64.609375 -84.625 C 70.390625 -81.0625 74.832031 -75.835938 77.9375 -68.953125 C 81.039062 -62.066406 82.59375 -53.78125 82.59375 -44.09375 C 82.59375 -34.5 81.019531 -26.257812 77.875 -19.375 C 74.726562 -12.488281 70.265625 -7.21875 64.484375 -3.5625 C 58.710938 0.0820312 51.914062 1.90625 44.09375 1.90625 C 36.195312 1.90625 29.359375 0.125 23.578125 -3.4375 C 17.796875 -7.007812 13.332031 -12.234375 10.1875 -19.109375 C 7.050781 -25.992188 5.484375 -34.28125 5.484375 -43.96875 C 5.484375 -53.488281 7.050781 -61.707031 10.1875 -68.625 C 13.332031 -75.550781 17.816406 -80.84375 23.640625 -84.5 C 29.460938 -88.15625 36.28125 -89.984375 44.09375 -89.984375 Z M 44.09375 -77.109375 C 37.300781 -77.109375 32.117188 -74.453125 28.546875 -69.140625 C 24.984375 -63.828125 23.203125 -55.4375 23.203125 -43.96875 C 23.203125 -21.96875 30.164062 -10.96875 44.09375 -10.96875 C 50.894531 -10.96875 56.054688 -13.597656 59.578125 -18.859375 C 63.109375 -24.128906 64.875 -32.539062 64.875 -44.09375 C 64.875 -55.570312 63.109375 -63.941406 59.578125 -69.203125 C 56.054688 -74.472656 50.894531 -77.109375 44.09375 -77.109375 Z M 44.09375 -77.109375 "/></g></g></g><g fill="#f8f8f8" fill-opacity="1"><g transform="translate(406.410944, 442.930841)"><g><path d="M 27.140625 -88.0625 L 27.140625 -13.765625 L 62.453125 -13.765625 L 60.546875 0 L 10.328125 0 L 10.328125 -88.0625 Z M 27.140625 -88.0625 "/></g></g></g><g fill="#f8f8f8" fill-opacity="1"><g transform="translate(470.895678, 442.930841)"><g><path d="M 27.140625 -88.0625 L 27.140625 -13.765625 L 62.453125 -13.765625 L 60.546875 0 L 10.328125 0 L 10.328125 -88.0625 Z M 27.140625 -88.0625 "/></g></g></g><g fill="#f8f8f8" fill-opacity="1"><g transform="translate(535.380411, 442.930841)"><g><path d="M 61.4375 -88.0625 L 59.640625 -75.578125 L 27.140625 -75.578125 L 27.140625 -50.984375 L 55.4375 -50.984375 L 55.4375 -38.484375 L 27.140625 -38.484375 L 27.140625 -12.625 L 61.9375 -12.625 L 61.9375 0 L 10.328125 0 L 10.328125 -88.0625 Z M 61.4375 -88.0625 "/></g></g></g><g fill="#f8f8f8" fill-opacity="1"><g transform="translate(602.923716, 442.930841)"><g><path d="M 43.96875 -89.984375 C 49.320312 -89.984375 53.992188 -89.21875 57.984375 -87.6875 C 61.984375 -86.15625 65.894531 -83.816406 69.71875 -80.671875 L 61.171875 -70.734375 C 55.992188 -74.898438 50.554688 -76.984375 44.859375 -76.984375 C 38.316406 -76.984375 33.070312 -74.347656 29.125 -69.078125 C 25.175781 -63.804688 23.203125 -55.519531 23.203125 -44.21875 C 23.203125 -33.175781 25.15625 -24.976562 29.0625 -19.625 C 32.96875 -14.269531 38.234375 -11.59375 44.859375 -11.59375 C 48.347656 -11.59375 51.453125 -12.207031 54.171875 -13.4375 C 56.890625 -14.675781 59.773438 -16.441406 62.828125 -18.734375 L 70.734375 -8.796875 C 67.765625 -5.734375 64.003906 -3.179688 59.453125 -1.140625 C 54.910156 0.890625 49.832031 1.90625 44.21875 1.90625 C 36.570312 1.90625 29.816406 0.125 23.953125 -3.4375 C 18.097656 -7.007812 13.554688 -12.253906 10.328125 -19.171875 C 7.097656 -26.097656 5.484375 -34.445312 5.484375 -44.21875 C 5.484375 -53.820312 7.160156 -62.066406 10.515625 -68.953125 C 13.867188 -75.835938 18.457031 -81.0625 24.28125 -84.625 C 30.101562 -88.195312 36.664062 -89.984375 43.96875 -89.984375 Z M 43.96875 -89.984375 "/></g></g></g><g fill="#f8f8f8" fill-opacity="1"><g transform="translate(675.309761, 442.930841)"><g><path d="M 66.90625 -88.0625 L 65.125 -74.6875 L 42.1875 -74.6875 L 42.1875 0 L 25.234375 0 L 25.234375 -74.6875 L 1.53125 -74.6875 L 1.53125 -88.0625 Z M 66.90625 -88.0625 "/></g></g></g><g fill="#f8f8f8" fill-opacity="1"><g transform="translate(742.853065, 442.930841)"><g><path d="M 27.140625 -88.0625 L 27.140625 0 L 10.328125 0 L 10.328125 -88.0625 Z M 27.140625 -88.0625 "/></g></g></g><g fill="#f8f8f8" fill-opacity="1"><g transform="translate(780.320491, 442.930841)"><g><path d="M 44.09375 -89.984375 C 52 -89.984375 58.835938 -88.195312 64.609375 -84.625 C 70.390625 -81.0625 74.832031 -75.835938 77.9375 -68.953125 C 81.039062 -62.066406 82.59375 -53.78125 82.59375 -44.09375 C 82.59375 -34.5 81.019531 -26.257812 77.875 -19.375 C 74.726562 -12.488281 70.265625 -7.21875 64.484375 -3.5625 C 58.710938 0.0820312 51.914062 1.90625 44.09375 1.90625 C 36.195312 1.90625 29.359375 0.125 23.578125 -3.4375 C 17.796875 -7.007812 13.332031 -12.234375 10.1875 -19.109375 C 7.050781 -25.992188 5.484375 -34.28125 5.484375 -43.96875 C 5.484375 -53.488281 7.050781 -61.707031 10.1875 -68.625 C 13.332031 -75.550781 17.816406 -80.84375 23.640625 -84.5 C 29.460938 -88.15625 36.28125 -89.984375 44.09375 -89.984375 Z M 44.09375 -77.109375 C 37.300781 -77.109375 32.117188 -74.453125 28.546875 -69.140625 C 24.984375 -63.828125 23.203125 -55.4375 23.203125 -43.96875 C 23.203125 -21.96875 30.164062 -10.96875 44.09375 -10.96875 C 50.894531 -10.96875 56.054688 -13.597656 59.578125 -18.859375 C 63.109375 -24.128906 64.875 -32.539062 64.875 -44.09375 C 64.875 -55.570312 63.109375 -63.941406 59.578125 -69.203125 C 56.054688 -74.472656 50.894531 -77.109375 44.09375 -77.109375 Z M 44.09375 -77.109375 "/></g></g></g><g fill="#f8f8f8" fill-opacity="1"><g transform="translate(868.381631, 442.930841)"><g><path d="M 75.328125 0 L 53.53125 0 L 23.328125 -71.25 C 24.085938 -64.957031 24.660156 -59.257812 25.046875 -54.15625 C 25.429688 -49.0625 25.625 -42.988281 25.625 -35.9375 L 25.625 0 L 10.328125 0 L 10.328125 -88.0625 L 31.609375 -88.0625 L 62.328125 -16.703125 C 61.816406 -20.097656 61.304688 -24.578125 60.796875 -30.140625 C 60.285156 -35.703125 60.03125 -41.25 60.03125 -46.78125 L 60.03125 -88.0625 L 75.328125 -88.0625 Z M 75.328125 0 "/></g></g></g><text x="40%" y="87%" font-size="1.5em" font-family="Arial, sans-serif" fill="white">https://demo.iggy.social</text></svg>