<svg xmlns="http://www.w3.org/2000/svg" xmlns:xlink="http://www.w3.org/1999/xlink" width="1500" zoomAndPan="magnify" viewBox="0 0 1125 1124.99995" height="1500" preserveAspectRatio="xMidYMid meet" version="1.0"><defs><g/><clipPath id="f586ad1a3f"><path d="M 0 190.226562 L 1124.859375 190.226562 L 1124.859375 934.867188 L 0 934.867188 Z M 0 190.226562 " clip-rule="nonzero"/></clipPath></defs><g clip-path="url(#f586ad1a3f)"><path fill="#8e85e6" d="M 27.4375 934.867188 C 22.90625 934.867188 18.371094 933.960938 14.742188 932.148438 C 5.675781 927.613281 0.234375 918.542969 0.234375 907.660156 L 0.234375 507.675781 C 0.234375 332.625 142.597656 190.226562 317.601562 190.226562 L 798.1875 190.226562 C 978.632812 190.226562 1124.625 336.253906 1124.625 516.746094 C 1124.625 697.234375 978.632812 843.261719 798.1875 843.261719 L 168.894531 843.261719 L 42.855469 930.332031 C 38.320312 933.054688 32.878906 934.867188 27.4375 934.867188 Z M 317.601562 226.507812 C 162.546875 226.507812 36.507812 352.578125 36.507812 507.675781 L 36.507812 890.425781 L 158.011719 806.980469 L 798.1875 806.980469 C 957.777344 806.980469 1088.351562 676.375 1088.351562 516.746094 C 1088.351562 357.113281 957.777344 226.507812 798.1875 226.507812 Z M 317.601562 226.507812 " fill-opacity="1" fill-rule="nonzero"/></g><g fill="#8e85e6" fill-opacity="1"><g transform="translate(89.56728, 692.02536)"><g><path d="M 90.328125 -293.046875 L 90.328125 0 L 34.359375 0 L 34.359375 -293.046875 Z M 90.328125 -293.046875 "/></g></g></g><g fill="#8e85e6" fill-opacity="1"><g transform="translate(214.250124, 692.02536)"><g><path d="M 152.671875 -299.40625 C 171.898438 -299.40625 188.9375 -296.503906 203.78125 -290.703125 C 218.625 -284.910156 232.6875 -276.363281 245.96875 -265.0625 L 215.859375 -233.671875 C 205.398438 -241.867188 195.578125 -247.804688 186.390625 -251.484375 C 177.203125 -255.160156 166.53125 -257 154.375 -257 C 131.75 -257 113.226562 -247.953125 98.8125 -229.859375 C 84.394531 -211.765625 77.1875 -184.054688 77.1875 -146.734375 C 77.1875 -107.722656 82.910156 -79.59375 94.359375 -62.34375 C 105.804688 -45.09375 123.265625 -36.46875 146.734375 -36.46875 C 164.546875 -36.46875 180.097656 -40.285156 193.390625 -47.921875 L 193.390625 -124.265625 L 149.28125 -124.265625 L 143.34375 -165.828125 L 248.515625 -165.828125 L 248.515625 -22.484375 C 216.847656 -3.253906 183.203125 6.359375 147.578125 6.359375 C 105.734375 6.359375 73.710938 -6.644531 51.515625 -32.65625 C 29.328125 -58.664062 18.234375 -96.691406 18.234375 -146.734375 C 18.234375 -178.679688 24.238281 -206.175781 36.25 -229.21875 C 48.269531 -252.257812 64.457031 -269.71875 84.8125 -281.59375 C 105.175781 -293.46875 127.796875 -299.40625 152.671875 -299.40625 Z M 152.671875 -299.40625 "/></g></g></g><g fill="#8e85e6" fill-opacity="1"><g transform="translate(484.820427, 692.02536)"><g><path d="M 152.671875 -299.40625 C 171.898438 -299.40625 188.9375 -296.503906 203.78125 -290.703125 C 218.625 -284.910156 232.6875 -276.363281 245.96875 -265.0625 L 215.859375 -233.671875 C 205.398438 -241.867188 195.578125 -247.804688 186.390625 -251.484375 C 177.203125 -255.160156 166.53125 -257 154.375 -257 C 131.75 -257 113.226562 -247.953125 98.8125 -229.859375 C 84.394531 -211.765625 77.1875 -184.054688 77.1875 -146.734375 C 77.1875 -107.722656 82.910156 -79.59375 94.359375 -62.34375 C 105.804688 -45.09375 123.265625 -36.46875 146.734375 -36.46875 C 164.546875 -36.46875 180.097656 -40.285156 193.390625 -47.921875 L 193.390625 -124.265625 L 149.28125 -124.265625 L 143.34375 -165.828125 L 248.515625 -165.828125 L 248.515625 -22.484375 C 216.847656 -3.253906 183.203125 6.359375 147.578125 6.359375 C 105.734375 6.359375 73.710938 -6.644531 51.515625 -32.65625 C 29.328125 -58.664062 18.234375 -96.691406 18.234375 -146.734375 C 18.234375 -178.679688 24.238281 -206.175781 36.25 -229.21875 C 48.269531 -252.257812 64.457031 -269.71875 84.8125 -281.59375 C 105.175781 -293.46875 127.796875 -299.40625 152.671875 -299.40625 Z M 152.671875 -299.40625 "/></g></g></g><g fill="#8e85e6" fill-opacity="1"><g transform="translate(755.390731, 692.02536)"><g><path d="M 244.28125 -293.046875 L 150.125 -111.109375 L 150.125 0 L 93.296875 0 L 93.296875 -110.6875 L -0.84375 -293.046875 L 61.0625 -293.046875 L 122.984375 -156.921875 L 184.90625 -293.046875 Z M 244.28125 -293.046875 "/></g></g></g></svg>