<svg xmlns="http://www.w3.org/2000/svg" xmlns:xlink="http://www.w3.org/1999/xlink" width="275" zoomAndPan="magnify" viewBox="0 0 206.25 138.750001" height="185" preserveAspectRatio="xMidYMid meet" version="1.0"><defs><g/><clipPath id="ef901b76a2"><path d="M 0 1.246094 L 205.476562 1.246094 L 205.476562 137.269531 L 0 137.269531 Z M 0 1.246094 " clip-rule="nonzero"/></clipPath></defs><g clip-path="url(#ef901b76a2)"><path fill="#8e85e6" d="M 5.011719 137.269531 C 4.183594 137.269531 3.355469 137.105469 2.691406 136.773438 C 1.035156 135.945312 0.0429688 134.289062 0.0429688 132.300781 L 0.0429688 59.234375 C 0.0429688 27.257812 26.046875 1.246094 58.015625 1.246094 L 145.804688 1.246094 C 178.765625 1.246094 205.433594 27.921875 205.433594 60.890625 C 205.433594 93.863281 178.765625 120.535156 145.804688 120.535156 L 30.851562 120.535156 L 7.828125 136.441406 C 7 136.9375 6.007812 137.269531 5.011719 137.269531 Z M 58.015625 7.875 C 29.691406 7.875 6.667969 30.90625 6.667969 59.234375 L 6.667969 129.152344 L 28.863281 113.910156 L 145.804688 113.910156 C 174.957031 113.910156 198.808594 90.050781 198.808594 60.890625 C 198.808594 31.734375 174.957031 7.875 145.804688 7.875 Z M 58.015625 7.875 " fill-opacity="1" fill-rule="nonzero"/></g><g fill="#8e85e6" fill-opacity="1"><g transform="translate(16.361168, 92.910738)"><g><path d="M 16.5 -53.53125 L 16.5 0 L 6.28125 0 L 6.28125 -53.53125 Z M 16.5 -53.53125 "/></g></g></g><g fill="#8e85e6" fill-opacity="1"><g transform="translate(39.136867, 92.910738)"><g><path d="M 27.890625 -54.6875 C 31.398438 -54.6875 34.507812 -54.15625 37.21875 -53.09375 C 39.9375 -52.039062 42.507812 -50.484375 44.9375 -48.421875 L 39.4375 -42.6875 C 37.519531 -44.1875 35.722656 -45.269531 34.046875 -45.9375 C 32.367188 -46.613281 30.421875 -46.953125 28.203125 -46.953125 C 24.066406 -46.953125 20.679688 -45.296875 18.046875 -41.984375 C 15.410156 -38.679688 14.09375 -33.617188 14.09375 -26.796875 C 14.09375 -19.671875 15.140625 -14.53125 17.234375 -11.375 C 19.328125 -8.226562 22.515625 -6.65625 26.796875 -6.65625 C 30.054688 -6.65625 32.898438 -7.351562 35.328125 -8.75 L 35.328125 -22.703125 L 27.265625 -22.703125 L 26.1875 -30.296875 L 45.390625 -30.296875 L 45.390625 -4.109375 C 39.609375 -0.597656 33.460938 1.15625 26.953125 1.15625 C 19.316406 1.15625 13.46875 -1.21875 9.40625 -5.96875 C 5.351562 -10.71875 3.328125 -17.660156 3.328125 -26.796875 C 3.328125 -32.640625 4.425781 -37.664062 6.625 -41.875 C 8.820312 -46.082031 11.78125 -49.269531 15.5 -51.4375 C 19.21875 -53.601562 23.347656 -54.6875 27.890625 -54.6875 Z M 27.890625 -54.6875 "/></g></g></g><g fill="#8e85e6" fill-opacity="1"><g transform="translate(88.561693, 92.910738)"><g><path d="M 27.890625 -54.6875 C 31.398438 -54.6875 34.507812 -54.15625 37.21875 -53.09375 C 39.9375 -52.039062 42.507812 -50.484375 44.9375 -48.421875 L 39.4375 -42.6875 C 37.519531 -44.1875 35.722656 -45.269531 34.046875 -45.9375 C 32.367188 -46.613281 30.421875 -46.953125 28.203125 -46.953125 C 24.066406 -46.953125 20.679688 -45.296875 18.046875 -41.984375 C 15.410156 -38.679688 14.09375 -33.617188 14.09375 -26.796875 C 14.09375 -19.671875 15.140625 -14.53125 17.234375 -11.375 C 19.328125 -8.226562 22.515625 -6.65625 26.796875 -6.65625 C 30.054688 -6.65625 32.898438 -7.351562 35.328125 -8.75 L 35.328125 -22.703125 L 27.265625 -22.703125 L 26.1875 -30.296875 L 45.390625 -30.296875 L 45.390625 -4.109375 C 39.609375 -0.597656 33.460938 1.15625 26.953125 1.15625 C 19.316406 1.15625 13.46875 -1.21875 9.40625 -5.96875 C 5.351562 -10.71875 3.328125 -17.660156 3.328125 -26.796875 C 3.328125 -32.640625 4.425781 -37.664062 6.625 -41.875 C 8.820312 -46.082031 11.78125 -49.269531 15.5 -51.4375 C 19.21875 -53.601562 23.347656 -54.6875 27.890625 -54.6875 Z M 27.890625 -54.6875 "/></g></g></g><g fill="#8e85e6" fill-opacity="1"><g transform="translate(137.986519, 92.910738)"><g><path d="M 44.625 -53.53125 L 27.421875 -20.296875 L 27.421875 0 L 17.046875 0 L 17.046875 -20.21875 L -0.15625 -53.53125 L 11.15625 -53.53125 L 22.46875 -28.65625 L 33.78125 -53.53125 Z M 44.625 -53.53125 "/></g></g></g></svg>